<svg xmlns="http://www.w3.org/2000/svg" xmlns:xlink="http://www.w3.org/1999/xlink" width="25" height="26" viewBox="0 0 25 26"><defs><path id="asv5a" d="M1228.87 39.5l-1.37 2.5h15v2.5h-15a2.5 2.5 0 0 1-2.19-3.71l1.69-3.05-4.5-9.49h-2.5v-2.5h4.09l1.17 2.5h18.5c.95 0 1.55 1.02 1.09 1.85l-4.48 8.11a2.49 2.49 0 0 1-2.18 1.29zm.54-2.5h8.78l3.45-6.25h-15.19zm.59 11.25a2.5 2.5 0 1 1 0 0zm12.5 0a2.5 2.5 0 1 1 0 0z"/></defs><g><g transform="translate(-1220 -25)"><g/><g><use fill="#f8f8f8" xlink:href="#asv5a"/></g></g></g></svg>