<svg xmlns="http://www.w3.org/2000/svg" xmlns:xlink="http://www.w3.org/1999/xlink" width="28" height="28" viewBox="0 0 28 28"><defs><path id="z153a" d="M1142.25 38.25a13.5 13.5 0 1 1-27.01-.01 13.5 13.5 0 0 1 27 .01zm-13.5 10.8c2.51 0 4.82-.86 6.65-2.32-.56-1.22-4.11-2.4-6.65-2.4s-6.08 1.18-6.66 2.4a10.65 10.65 0 0 0 6.66 2.32zm10.8-10.8c0-5.95-4.85-10.8-10.8-10.8-5.95 0-10.8 4.85-10.8 10.8 0 2.46.84 4.71 2.21 6.52 1.93-2.35 6.62-3.15 8.59-3.15 1.97 0 6.65.8 8.59 3.15a10.73 10.73 0 0 0 2.21-6.52zm-6.08-3.38a4.71 4.71 0 1 1-9.45 0c0-2.61 2.11-4.72 4.73-4.72 2.62 0 4.72 2.1 4.72 4.72zm-2.7 0a2.02 2.02 0 1 0-4.04 0 2.02 2.02 0 0 0 4.04 0z"/></defs><g><g transform="translate(-1115 -24)"><use fill="#f8f8f8" xlink:href="#z153a"/></g></g></svg>