<svg xmlns="http://www.w3.org/2000/svg" xmlns:xlink="http://www.w3.org/1999/xlink" width="68" height="42" viewBox="0 0 68 42"><defs><path id="aroaa" d="M1181.25 5061.75h67.5v40.5h-67.5z"/><path id="aroab" d="M1203.46 5082.7h-8.41s.14 3.02 3.15 3.02c2.39.07 2.8-1.55 2.8-1.55h2.18s-.2 3.02-4.98 3.02c-5.54 0-5.26-4.77-5.26-4.77-.07-1.05.14-5.19 5.4-5.19a4.7 4.7 0 0 1 5.12 5.47zm-2.17-1.4s0-2.67-3.02-2.67c-3.01 0-3.15 2.67-3.15 2.67z"/><path id="aroac" d="M1198.27 5077.23c5.82 0 5.2 5.47 5.2 5.47h-8.42s.14 3.02 3.15 3.02c2.39.07 2.8-1.55 2.8-1.55h2.18s-.2 3.02-4.98 3.02c-5.54 0-5.26-5.4-5.26-5.4m8.35-.5s0-2.66-3.02-2.66c-3.01 0-3.15 2.67-3.15 2.67z"/><path id="aroad" d="M1214.54 5082.28c-.07 3.16-2.31 4.91-5.12 4.91-2.8 0-3.78-1.54-3.78-1.54l-.07 1.26h-2.04c.07-.7.07-2.17.07-2.17l-.07-11.16h2.39v5.26s.98-1.54 3.64-1.54c2.6 0 4.98 1.82 4.98 4.98zm-2.31.07s.07-3.65-3.3-3.58c-3.43.07-3.3 3.51-3.3 3.51s0 3.58 3.3 3.5c3.3-.06 3.3-3.43 3.3-3.43z"/><path id="aroae" d="M1214.47 5082.28c-.07 3.16-2.31 4.91-5.12 4.91-2.8 0-3.78-1.54-3.78-1.54l-.07 1.26h-2.04c.07-.7.07-2.17.07-2.17v-8.98l2.39-2.18v5.26s.98-1.54 3.64-1.54c2.6 0 4.98 1.82 4.91 4.98zm-2.24.07s.07-3.65-3.3-3.58c-3.43.07-3.3 3.51-3.3 3.51s0 3.58 3.3 3.5c3.3-.06 3.3-3.43 3.3-3.43z"/><path id="aroaf" d="M1224.22 5086.91h-1.96l-.07-1.33c-.84 1.05-1.96 1.61-3.93 1.61-1.96 0-4.42-.84-4-3.65.35-2.38 4.21-2.52 5.34-2.52.63 0 2.45-.07 2.45-.07 0-1.34-.35-2.39-2.52-2.46-2.32-.07-2.46 1.34-2.46 1.34h-2.24c.49-2.81 4.83-2.74 4.83-2.74 4.56.21 4.42 2.88 4.5 3.93.06.9 0 2.17 0 3.64 0 1.48.06 2.18.06 2.25zm-2.24-4.42h-2.38s-3.37-.14-3.23 1.68c.14 1.69 2.24 1.69 2.24 1.69 3.86.07 3.44-3.37 3.37-3.37z"/><path id="aroag" d="M1219.73 5077.23c4.56.21 4.35 2.88 4.42 3.93.07.91 0 2.17 0 3.65 0 1.47.07 2.17.07 2.17h-1.96l-.07-1.33c-.84 1.05-1.96 1.61-3.93 1.61-1.96 0-4.42-.84-4-3.65.35-2.38 4.21-2.52 5.34-2.52.63 0 2.45-.07 2.45-.07 0-1.34-.35-2.39-2.52-2.46-2.32-.07-2.46 1.34-2.46 1.34h-2.03m6.94 2.59h-2.38s-3.37-.14-3.23 1.68c.14 1.69 2.24 1.69 2.24 1.69 3.86.07 3.44-3.37 3.37-3.37z"/><path id="aroah" d="M1223.03 5077.8h2.46l3.57 7.15 3.58-7.16h2.25l-6.53 12.63h-2.38l1.9-3.51z"/><path id="aroai" d="M1224.01 5079.61l1.48-1.82 3.57 7.09 3.58-7.09h2.25l-6.53 12.63h-2.38l1.9-3.58z"/><path id="aroaj" d="M1235.66 5078.14v-.28h-.07v-.07h.07v-.14h.14v.14h.14v.07h-.14v.28c0 .07 0 .07.07.07h.07v.07h-.14c-.07.07-.14 0-.14-.14z"/><path id="aroak" d="M1236.15 5077.8h.14v.06c.07-.07.07-.07.2-.07.08 0 .15 0 .22.07.07-.07.14-.07.21-.07.14 0 .21.07.21.21v.35h-.14v-.28c0-.07-.07-.14-.14-.14a.15.15 0 0 0-.14.14v.28h-.14v-.28c0-.07-.07-.14-.14-.14s-.14.07-.14.14v.28h-.14v-.56z"/><path id="aroal" d="M1201.08 5080.18c.28.56.28 1.12.28 1.12h-6.24s0-1.54 1.4-2.25c-1.4.21-2.6.92-3.5 1.97-.15.56-.15 1.12-.15 1.4 0 0-.28 4.77 5.26 4.77 4.07 0 4.84-2.17 4.98-2.8v-.22h-2.17s-.42 1.62-2.8 1.55c-2.95 0-3.1-3.02-3.1-3.02h7.8c-.36-.7-1-1.9-1.76-2.52z"/><path id="aroam" d="M1213.98 5084.52a5.82 5.82 0 0 0-2.38-4.34c.63.98.56 2.24.56 2.24s.07 3.44-3.3 3.44c-3.3.07-3.3-3.51-3.3-3.51s-.06-2.31 1.76-3.16a5.66 5.66 0 0 0-3.86 2.39v3.3s0 1.47-.07 2.17h2.04l.07-1.26s.98 1.54 3.78 1.54c2.1-.14 3.93-1.05 4.7-2.8z"/><path id="aroan" d="M1224.15 5086.98h-1.96l-.07-1.33c-.84 1.05-1.96 1.61-3.93 1.61-1.96 0-4.42-.84-4-3.65.35-2.38 4.21-2.52 5.34-2.52.63 0 2.45-.07 2.45-.07 0-.63 0-1.12-.35-1.55a5.7 5.7 0 0 1 2.52 2.1v3.1c0 1.47.07 2.17 0 2.31zm-2.17-4.49h-2.38s-3.37-.14-3.23 1.68c.14 1.69 2.24 1.69 2.24 1.69 3.86.07 3.44-3.37 3.37-3.37z"/><path id="aroao" d="M1216.02 5079.9h1.12s.14-.43.5-.78c-.64.14-1.2.78-1.62.78z"/><path id="aroap" d="M1228.36 5090.42l4.56-8.84a9.4 9.4 0 0 0-1.4-1.47l-2.46 4.7-2.8-5.4c-.63.27-1.2.7-1.69 1.19l3.3 6.31-1.9 3.5z"/></defs><g><g transform="translate(-1181 -5061)"><g><use fill="#f8f8f8" xlink:href="#aroaa"/></g><g><g><g><use fill="#ff6c6c" xlink:href="#aroab"/></g><g><use fill="#ee3b3f" xlink:href="#aroac"/></g><g><use fill="#1992dd" xlink:href="#aroad"/></g><g><use fill="#0468b2" xlink:href="#aroae"/></g><g><use fill="#ffce00" xlink:href="#aroaf"/></g><g><use fill="#f7ab1b" xlink:href="#aroag"/></g><g><use fill="#85dd52" xlink:href="#aroah"/></g><g><g><use fill="#6bb745" xlink:href="#aroai"/></g><g><use fill="#6bb745" xlink:href="#aroaj"/></g><g><use fill="#6bb745" xlink:href="#aroak"/></g></g><g><use fill="#c60c1e" xlink:href="#aroal"/></g><g><use fill="#064c91" xlink:href="#aroam"/></g><g><g><use fill="#f48d1c" xlink:href="#aroan"/></g><g><use fill="#f48d1c" xlink:href="#aroao"/></g></g><g><use fill="#4a9e19" xlink:href="#aroap"/></g></g></g></g></g></svg>