<svg xmlns="http://www.w3.org/2000/svg" xmlns:xlink="http://www.w3.org/1999/xlink" width="68" height="42" viewBox="0 0 68 42"><defs><path id="g1xea" d="M1091.25 5061.75h67.5v40.5h-67.5z"/><path id="g1xeb" d="M1147.13 5082a13.27 13.27 0 1 1-26.56 0 13.28 13.28 0 0 1 26.56 0z"/><path id="g1xec" d="M1133.85 5068.72a13.27 13.27 0 1 1-13.28 13.28"/><path id="g1xed" d="M1133.85 5068.72a13.27 13.27 0 1 1 0 26.56"/><path id="g1xee" d="M1116 5068.72a13.28 13.28 0 0 0 .15 26.56c3.44 0 6.53-1.34 8.92-3.44.5-.43.91-.92 1.33-1.41h-2.74c-.35-.42-.7-.91-.98-1.33h4.7c.29-.43.57-.92.78-1.41h-6.25a8.4 8.4 0 0 1-.56-1.4h7.3c.42-1.34.7-2.74.7-4.22 0-.98-.13-1.9-.28-2.81h-8.15c.08-.5.22-.91.36-1.4h7.3c-.14-.5-.35-.99-.56-1.41h-6.18c.2-.5.49-.91.77-1.4h4.7c-.27-.5-.62-.99-1.05-1.41h-2.6c.43-.5.85-.91 1.34-1.34a12.96 12.96 0 0 0-8.92-3.44c0-.14 0-.14-.07-.14z"/><path id="g1xef" d="M1102.87 5082a13.27 13.27 0 0 0 22.2 9.84c.5-.43.91-.92 1.33-1.41h-2.74c-.35-.42-.7-.91-.98-1.33h4.7c.29-.43.57-.92.78-1.41h-6.25a8.4 8.4 0 0 1-.56-1.4h7.3c.42-1.34.7-2.74.7-4.22 0-.98-.13-1.9-.28-2.81h-8.15c.08-.5.22-.91.36-1.4h7.3c-.14-.5-.35-.99-.56-1.41h-6.18c.2-.5.49-.91.77-1.4h4.7c-.27-.5-.62-.99-1.05-1.41h-2.6c.43-.5.85-.91 1.34-1.34a12.96 12.96 0 0 0-8.92-3.44h-.07"/><path id="g1xeg" d="M1116.15 5095.28c3.44 0 6.53-1.34 8.92-3.44.5-.43.91-.92 1.33-1.41h-2.74c-.35-.42-.7-.91-.98-1.33h4.7c.29-.43.57-.92.78-1.41h-6.25a8.4 8.4 0 0 1-.56-1.4h7.3c.42-1.34.7-2.74.7-4.22 0-.98-.13-1.9-.28-2.81h-8.15c.08-.5.22-.91.36-1.4h7.3c-.14-.5-.35-.99-.56-1.41h-6.18c.2-.5.49-.91.77-1.4h4.7c-.27-.5-.62-.99-1.05-1.41h-2.6c.43-.5.85-.91 1.34-1.34a12.96 12.96 0 0 0-8.92-3.44h-.07"/><path id="g1xeh" d="M1120.85 5085.37l.22-1.2c-.07 0-.22.08-.36.08-.49 0-.56-.28-.49-.42l.42-2.46h.78l.2-1.34h-.7l.15-.84h-1.41s-.84 4.64-.84 5.2c0 .84.49 1.2 1.12 1.2.42 0 .77-.15.91-.22z"/><path id="g1xei" d="M1123.88 5079.96c1.54 0 2.03 1.13 2.03 2.04 0 .35-.2 1.26-.2 1.26h-2.89s-.28 1.13 1.27 1.13c.7 0 1.47-.35 1.47-.35l-.28 1.33s-.42.21-1.48.21c-1.12 0-2.45-.49-2.45-2.46 0-1.75 1.05-3.3 2.53-3.16zm-.99 2.11h1.55c0-.07.14-.98-.64-.98-.77 0-.9.9-.9.98z"/><path id="g1xej" d="M1132.73 5085.37l.28-1.54s-.7.35-1.2.35c-.98 0-1.4-.78-1.4-1.62 0-1.68.84-2.6 1.83-2.6.7 0 1.26.42 1.26.42l.21-1.47s-.84-.35-1.61-.35c-1.62 0-3.24 1.4-3.24 4.07 0 1.76.85 2.95 2.53 2.95.56 0 1.34-.2 1.34-.2z"/><path id="g1xek" d="M1115.02 5081.58l-.56 3.86h-1.26l.07-.56c-.07 0-.5.63-1.48.63-.5 0-1.33-.28-1.33-1.54 0-1.62 1.33-2.11 2.53-2.11h.63s.07-.07.07-.35c0-.42-.42-.5-.92-.5-.9 0-1.54.29-1.54.29l.21-1.2s.7-.28 1.69-.28c.49 0 1.9.07 1.9 1.76zm-1.9 1.33c-1.05 0-1.26.5-1.26.85 0 .2.14.56.56.56.85 0 .99-1.13.99-1.34 0 0-.07 0-.28-.07z"/><path id="g1xel" d="M1116.36 5085.51c.35 0 2.1.07 2.1-1.82 0-1.76-1.68-1.4-1.68-2.11 0-.35.28-.5.77-.5.21 0 .99.08.99.08l.2-1.27s-.49-.14-1.33-.14c-1.05 0-2.1.42-2.1 1.83 0 1.61 1.75 1.47 1.75 2.1 0 .43-.5.5-.84.5-.64 0-1.27-.21-1.27-.21l-.2 1.26c.06.14.41.28 1.6.28z"/><path id="g1xem" d="M1145.87 5078.77l-1.06 6.74h-1.4l.07-.49s-.5.56-1.34.56c-1.2 0-1.75-1.2-1.75-2.32 0-1.82 1.12-3.37 2.38-3.37.78 0 1.34.7 1.34.7l.28-1.9zm-2.88 2.46c-.64 0-1.13.7-1.13 1.82 0 .7.28 1.13.77 1.13.78 0 1.13-.99 1.13-1.76 0-.84-.28-1.2-.77-1.2z"/><path id="g1xen" d="M1105.47 5085.44l.84-5.06.14 5.06h.98l1.83-5.06-.77 5.06h1.47l1.13-6.74h-2.32l-1.4 4.14-.07-4.14h-2.04l-1.13 6.74z"/><path id="g1xeo" d="M1127.25 5085.44c.42-2.32.49-4.21 1.47-3.86.14-.92.35-1.27.5-1.62h-.29c-.63 0-1.12.85-1.12.85l.14-.78h-1.33l-.92 5.48h1.55z"/><path id="g1xep" d="M1137.86 5081.58l-.57 3.86h-1.26l.07-.56c-.07 0-.5.63-1.48.63-.49 0-1.33-.28-1.33-1.54 0-1.62 1.33-2.11 2.53-2.11h.63s.07-.07.07-.35c0-.42-.42-.5-.91-.5-.92 0-1.55.29-1.55.29l.21-1.2s.7-.28 1.69-.28c.5 0 1.97.07 1.9 1.76zm-1.83 1.33c-1.05 0-1.26.5-1.26.85 0 .2.14.56.56.56.84 0 .98-1.13.98-1.34-.07 0-.07 0-.28-.07z"/><path id="g1xeq" d="M1139.05 5085.44c.42-2.32.5-4.21 1.48-3.86.14-.92.35-1.27.49-1.62h-.28c-.64 0-1.13.85-1.13.85l.14-.78h-1.33l-.91 5.48h1.54z"/><path id="g1xer" d="M1118.68 5084.39c0 .84.49 1.2 1.12 1.2.5 0 .91-.15 1.05-.22l.22-1.2c-.07 0-.22.08-.36.08-.49 0-.56-.28-.49-.42l.42-2.46h.78l.2-1.34h-.7l.15-.84"/><path id="g1xes" d="M1123.88 5079.96c1.54 0 2.03 1.13 2.03 2.04 0 .35-.2 1.26-.2 1.26h-2.89s-.28 1.13 1.27 1.13c.7 0 1.47-.35 1.47-.35l-.28 1.33s-.42.21-1.48.21c-1.12 0-1.75-.49-1.75-2.46 0-1.75.35-3.3 1.83-3.16zm-.99 2.11h1.83c0-.07-.14-.98-.92-.98-.77 0-.9.9-.9.98z"/><path id="g1xet" d="M1132.73 5085.37l.28-1.54s-.7.35-1.2.35c-.98 0-1.4-.78-1.4-1.62 0-1.68.84-2.6 1.83-2.6.7 0 1.26.42 1.26.42l.21-1.47s-.84-.35-1.61-.35c-1.62 0-2.53 1.4-2.53 4.07 0 1.76.14 2.95 1.82 2.95.56 0 1.34-.2 1.34-.2z"/><path id="g1xeu" d="M1113.06 5079.96c.56 0 1.96.07 1.96 1.69l-.56 3.86h-1.26l.07-.56c-.07 0-.5.63-1.48.63-.5 0-1.33-.28-1.33-1.54 0-1.62 1.33-2.11 2.53-2.11h.63s.07-.07.07-.35c0-.42-.42-.5-.92-.5-.9 0-1.54.29-1.54.29m1.9 1.54c-1.06 0-1.27.5-1.27.85 0 .2.14.56.56.56.85 0 1.69-1.13 1.69-1.34 0 0-.77 0-.98-.07z"/><path id="g1xev" d="M1114.81 5085.37s.42.14 1.62.14c.35 0 2.1.07 2.1-1.82 0-1.76-1.68-1.4-1.68-2.11 0-.35.28-.5.77-.5.21 0 .99.08.99.08l.2-1.27s-.48-.14-1.33-.14c-1.05 0-1.4.42-1.4 1.83 0 1.61 1.05 1.47 1.05 2.1 0 .43-.5.5-.84.5"/><path id="g1xew" d="M1145.87 5078.77l-1.06 6.74h-1.4l.07-.49s-.5.56-1.34.56c-1.2 0-1.05-1.2-1.05-2.32 0-1.82.42-3.37 1.68-3.37.78 0 1.34.7 1.34.7m-1.12.64c-.64 0-1.13.7-1.13 1.82 0 .7.28 1.13.77 1.13.78 0 1.4-.99 1.4-1.76 0-.84-.55-1.2-1.04-1.2z"/><path id="g1xex" d="M1105.47 5085.44l.84-5.06.14 5.06h.98l1.83-5.06-.77 5.06h1.47l1.13-6.74h-1.76l-1.97 4.14-.06-4.14h-.78l-2.39 6.74z"/><path id="g1xey" d="M1125.77 5085.44h1.48c.42-2.32.49-4.21 1.47-3.86.14-.92.35-1.27.5-1.62h-.29c-.63 0-1.12.85-1.12.85l.14-.78"/><path id="g1xez" d="M1135.89 5079.96c.56 0 1.97.07 1.97 1.69l-.57 3.86h-1.26l.07-.56c-.07 0-.5.63-1.48.63-.49 0-1.33-.28-1.33-1.54 0-1.62 1.33-2.11 2.53-2.11h.63s.07-.07.07-.35c0-.42-.42-.5-.91-.5-.92 0-1.55.29-1.55.29m1.9 1.54c-1.05 0-1.27.5-1.27.85 0 .2.15.56.57.56.84 0 1.68-1.13 1.68-1.34 0 0-.7 0-.98-.07z"/><path id="g1xeA" d="M1137.57 5085.44h1.48c.42-2.32.5-4.21 1.48-3.86.14-.92.35-1.27.49-1.62h-.28c-.64 0-1.13.85-1.13.85l.14-.78"/></defs><g><g transform="translate(-1091 -5061)"><g><use fill="#f8f8f8" xlink:href="#g1xea"/></g><g><g><g><use fill="#ffb600" xlink:href="#g1xeb"/></g><g><use fill="#f7981d" xlink:href="#g1xec"/></g><g><use fill="#ff8500" xlink:href="#g1xed"/></g><g><use fill="#ff5050" xlink:href="#g1xee"/></g><g><use fill="#e52836" xlink:href="#g1xef"/></g><g><use fill="#cb2026" xlink:href="#g1xeg"/></g><g><g><use fill="#fff" xlink:href="#g1xeh"/></g><g><use fill="#fff" xlink:href="#g1xei"/></g><g><use fill="#fff" xlink:href="#g1xej"/></g><g><use fill="#fff" xlink:href="#g1xek"/></g><g><use fill="#fff" xlink:href="#g1xel"/></g><g><use fill="#fff" xlink:href="#g1xem"/></g><g><use fill="#fff" xlink:href="#g1xen"/></g><g><use fill="#fff" xlink:href="#g1xeo"/></g><g><use fill="#fff" xlink:href="#g1xep"/></g><g><use fill="#fff" xlink:href="#g1xeq"/></g></g><g><g><use fill="#dce5e5" xlink:href="#g1xer"/></g><g><use fill="#dce5e5" xlink:href="#g1xes"/></g><g><use fill="#dce5e5" xlink:href="#g1xet"/></g><g><use fill="#dce5e5" xlink:href="#g1xeu"/></g><g><use fill="#dce5e5" xlink:href="#g1xev"/></g><g><use fill="#dce5e5" xlink:href="#g1xew"/></g><g><use fill="#dce5e5" xlink:href="#g1xex"/></g><g><use fill="#dce5e5" xlink:href="#g1xey"/></g><g><use fill="#dce5e5" xlink:href="#g1xez"/></g><g><use fill="#dce5e5" xlink:href="#g1xeA"/></g></g></g></g></g></g></svg>