<svg xmlns="http://www.w3.org/2000/svg" xmlns:xlink="http://www.w3.org/1999/xlink" width="68" height="42" viewBox="0 0 68 42"><defs><path id="c40qa" d="M1001.25 5061.75h67.5v40.5h-67.5z"/><path id="c40qb" d="M1029.1 5088.36l2.25-12.65h3.5l-2.17 12.65z"/><path id="c40qc" d="M1029.1 5088.36l2.88-12.65h2.88l-2.18 12.65z"/><path id="c40qd" d="M1045.4 5075.85a8.9 8.9 0 0 0-3.23-.56c-3.52 0-6.05 1.76-6.05 4.29 0 1.9 1.76 2.88 3.16 3.5 1.41.64 1.83 1.06 1.83 1.62 0 .85-1.12 1.27-2.1 1.27-1.41 0-2.18-.21-3.38-.7l-.49-.21-.5 2.88c.85.35 2.4.7 4.01.7 3.73 0 6.19-1.76 6.19-4.43 0-1.47-.92-2.6-3.03-3.51-1.26-.63-2.03-.98-2.03-1.62 0-.56.63-1.12 2.03-1.12 1.2 0 2.04.21 2.67.5l.36.13.56-2.74z"/><path id="c40qe" d="M1045.4 5075.85a8.9 8.9 0 0 0-3.23-.56c-3.52 0-5.41 1.76-5.41 4.29 0 1.9 1.12 2.88 2.52 3.5 1.41.64 1.83 1.06 1.83 1.62 0 .85-1.12 1.27-2.1 1.27-1.41 0-2.18-.21-3.38-.7l-.49-.21-.5 2.88c.85.35 2.4.7 4.01.7 3.73 0 6.19-1.76 6.19-4.43 0-1.47-.92-2.6-3.03-3.51-1.26-.63-2.03-.98-2.03-1.62 0-.56.63-1.12 2.03-1.12 1.2 0 2.04.21 2.67.5l.36.13.56-2.74z"/><path id="c40qf" d="M1054.18 5075.71l2.95 12.65h-3.37l-.42-2.11h-4.5l-.7 2.1h-3.8l5.27-11.72c.35-.85.99-.92 1.83-.92zm-4.36 8.5h2.95c-.14-.7-.84-3.86-.84-3.86l-.21-1.2c-.21.5-.5 1.27-.5 1.27s-1.19 3.09-1.4 3.72z"/><path id="c40qg" d="M1054.18 5075.71l2.95 12.65h-3.37l-.42-2.11h-4.5l-.7 2.1h-3.8l6.12-11.72c.35-.85.98-.92 1.82-.92zm-4.36 8.5h2.95c-.14-.7-.84-3.86-.84-3.86l-.21-1.2c-.21.5-.5 1.27-.5 1.27s-1.12 3.02-1.4 3.72z"/><path id="c40qh" d="M1022.63 5084.56l-.35-1.82c-.63-2.11-2.67-4.43-4.91-5.55l3.16 11.24h3.79l5.7-12.65h-3.8z"/><path id="c40qi" d="M1022.63 5084.56l-.35-1.82c-.63-2.11-2.67-4.43-4.91-5.55l3.16 11.24h3.79l5.7-12.65h-3.1z"/><path id="c40qj" d="M1012.87 5075.71l.63.14c4.5 1.06 7.59 3.73 8.78 6.89l-1.26-5.97c-.21-.85-.84-1.06-1.62-1.06z"/><path id="c40qk" d="M1012.87 5075.71c4.5 1.06 8.22 3.8 9.41 6.96l-1.2-5a1.72 1.72 0 0 0-1.68-1.33z"/><path id="c40ql" d="M1012.87 5075.71c4.5 1.06 8.22 3.8 9.41 6.96l-.84-2.74c-.21-.85-.5-1.69-1.48-2.04z"/><path id="c40qm" d="M1026.15 5084.14l-2.4-2.39-1.12 2.67-.28-1.75c-.63-2.11-2.67-4.43-4.91-5.55l3.16 11.24h3.8z"/><path id="c40qn" d="M1032.68 5088.36l-3.02-3.1-.56 3.1z"/><path id="c40qo" d="M1040.76 5084c.28.28.42.5.35.77 0 .85-1.12 1.27-2.1 1.27-1.41 0-2.18-.21-3.38-.7l-.49-.21-.5 2.88c.85.35 2.4.7 4.01.7 2.25 0 4.08-.63 5.13-1.76z"/><path id="c40qp" d="M1044.84 5088.36h3.3l.7-2.11h4.5l.42 2.1h3.37l-1.2-5.12-4.21-4.08.21 1.13s.7 3.16.84 3.86h-2.95c.28-.7 1.4-3.72 1.4-3.72s.29-.77.5-1.27"/></defs><g><g transform="translate(-1001 -5061)"><g><use fill="#f8f8f8" xlink:href="#c40qa"/></g><g><g><g><use fill="#3c58bf" xlink:href="#c40qb"/></g><g><use fill="#293688" xlink:href="#c40qc"/></g><g><use fill="#3c58bf" xlink:href="#c40qd"/></g><g><use fill="#293688" xlink:href="#c40qe"/></g><g><use fill="#3c58bf" xlink:href="#c40qf"/></g><g><use fill="#293688" xlink:href="#c40qg"/></g><g><use fill="#3c58bf" xlink:href="#c40qh"/></g><g><use fill="#293688" xlink:href="#c40qi"/></g><g><use fill="#ffbc00" xlink:href="#c40qj"/></g><g><use fill="#f7981d" xlink:href="#c40qk"/></g><g><use fill="#ed7c00" xlink:href="#c40ql"/></g><g><g><use fill="#051244" xlink:href="#c40qm"/></g><g><use fill="#051244" xlink:href="#c40qn"/></g><g><use fill="#051244" xlink:href="#c40qo"/></g><g><use fill="#051244" xlink:href="#c40qp"/></g></g></g></g></g></g></svg>