<svg xmlns="http://www.w3.org/2000/svg" xmlns:xlink="http://www.w3.org/1999/xlink" width="82" height="90" viewBox="0 0 82 90"><defs><path id="qojpa" d="M1009.34 4014.6a1.76 1.76 0 1 0 0 3.53 1.76 1.76 0 0 0 0-3.52z"/><path id="qojpb" d="M1030.43 4033.24c0 .97-.79 1.76-1.76 1.76h-77.34c-.97 0-1.76-.79-1.76-1.76 0-10.85 7.05-21.08 16.77-24.31l8.35-2.79 3-6a18.64 18.64 0 0 1-3.72-5.4h-1.55a5.28 5.28 0 0 1-5.27-5.27v-2.06a5.28 5.28 0 0 1-3.52-4.97v-11.07A26.35 26.35 0 0 1 990 3945a26.4 26.4 0 0 1 26.37 26.37v11.07c0 2.9-2.37 5.27-5.28 5.27h-3.2l-.37 2.25c-.63 3.8-2.5 7.43-5.21 10.18l3 6 8.35 2.79c9.72 3.23 16.77 13.46 16.77 24.31zm-17.58-60.12h-3.57v.3c-.13 3.63-.42 7.32-.87 10.78h2.68c.97 0 1.76-.79 1.76-1.76zm-43.94 11.08h2.68a114.6 114.6 0 0 1-.85-10.5v-.02l-.02-.56h-3.57v9.32c0 .97.79 1.76 1.76 1.76zm3.83 7.03c-.1-.42-.19-.85-.26-1.27l-.38-2.25h-1.44v1.76c0 .97.8 1.76 1.76 1.76zm15.69-39.2h3.14a17.8 17.8 0 0 1 17.76 17.58h3.45a22.88 22.88 0 0 0-22.78-21.1 22.84 22.84 0 0 0-22.79 21.1h3.46a17.8 17.8 0 0 1 17.76-17.58zm-14.17 16.33a15.9 15.9 0 0 1 12.22-5.78c.47 0 .92.18 1.25.51a28.24 28.24 0 0 0 15.88 7.94l2.2.32v-.02l.01-1.47a14.3 14.3 0 0 0-14.25-14.31h-3.14a14.3 14.3 0 0 0-14.17 12.81zm7.25 22.87c.7-2 2.63-3.52 4.97-3.52H990a5.28 5.28 0 0 1 0 10.55h-3.52a5.28 5.28 0 0 1-4.97-3.51h-3.58a14.25 14.25 0 0 0 8.61 6.64c2.27.56 4.65.56 6.92 0 5.5-1.38 9.66-6.43 10.6-12.01.32-1.96.44-2.66.6-3.75a108 108 0 0 0 1.04-10.75l-2.59-.37a31.8 31.8 0 0 1-17.32-8.4c-3.6.21-6.98 2-9.15 4.9l-2.37 3.16c.23 5.52 1.23 14.13 2.11 17.06zm8.26 17.15l3.1-3.29a17.78 17.78 0 0 1-6.53-.15zm-9.84-4.87l-2.09 4.2a67.1 67.1 0 0 0 3.94 9.12l5.57-5.9zm12.32 7.35l5.97 5.97c1.54-2.93 2.85-6 3.94-9.13l-2.4-4.78zm-5.77-16.11H990a1.76 1.76 0 0 0 0-3.52h-3.52a1.76 1.76 0 0 0 0 3.52zm.35 36.73l-2.16-3.47a70.55 70.55 0 0 1-4.81-7.34l-.01-.02a70.47 70.47 0 0 1-5-10.86l-7.4 2.47c-7.8 2.6-13.6 10.52-14.3 19.22zm5.64-5.52c1.42-1.9 2.76-3.89 3.97-5.94l-6.6-6.6-6.27 6.63a67.1 67.1 0 0 0 4.05 6.04l2.38 3.83c2.5-4.02 2.38-3.84 2.47-3.96zm.7 5.52h33.67c-.7-8.7-6.49-16.62-14.29-19.22l-7.4-2.47a70.43 70.43 0 0 1-9.82 18.22z"/><path id="qojpc" d="M1021.56 4024.37a17.57 17.57 0 0 0-4.98-6.04 1.76 1.76 0 1 0-2.14 2.79 14.04 14.04 0 0 1 3.98 4.82 1.76 1.76 0 1 0 3.14-1.57z"/></defs><g><g transform="translate(-949 -3945)"><g><g><g><g><use fill="#004cff" xlink:href="#qojpa"/></g></g></g><g><g><g><use fill="#004cff" xlink:href="#qojpb"/></g></g></g><g><g><g><use fill="#004cff" xlink:href="#qojpc"/></g></g></g></g></g></g></svg>