<svg xmlns="http://www.w3.org/2000/svg" xmlns:xlink="http://www.w3.org/1999/xlink" width="90" height="90" viewBox="0 0 90 90"><defs><path id="9ekoa" d="M599.95 4024.97a1.77 1.77 0 0 0-2.48 0c-.33.33-.52.78-.52 1.24a1.77 1.77 0 0 0 1.76 1.76 1.77 1.77 0 0 0 1.76-1.76c0-.46-.19-.91-.52-1.24z"/><path id="9ekob" d="M667.53 3977.16a1.77 1.77 0 0 0-2.48 0 1.77 1.77 0 0 0 0 2.48 1.77 1.77 0 0 0 2.48 0 1.76 1.76 0 0 0 0-2.48z"/><path id="9ekoc" d="M675 3946.76v86.48c0 .97-.79 1.76-1.76 1.76h-53.06c-2.14 0-4.21-.78-5.82-2.18l-2.1-1.82c-.56 2.3-2.64 4-5.11 4h-16.88a5.28 5.28 0 0 1-5.27-5.27v-28.66c0-2.9 2.37-5.27 5.27-5.27h16.88c1.8 0 3.4.91 4.35 2.3l7.47-7.47-8.63-32.23c-.26-.93.3-1.9 1.24-2.15l16.66-4.46v-5.03c0-.97.79-1.76 1.76-1.76h43.24a1.75 1.75 0 0 1 1.76 1.76zm-66.1 82.97v-28.66c0-.96-.78-1.75-1.75-1.75h-6.68v20.25a1.76 1.76 0 0 1-3.52 0v-20.25h-6.68c-.97 0-1.75.79-1.75 1.75v28.66c0 .97.78 1.75 1.75 1.75h16.88c.97 0 1.76-.78 1.76-1.75zm13.54-39.73c.14.19.24.4.3.62l1.81 7.11h3.53l-6.85-25.37a1.76 1.76 0 0 1 1.24-2.16 4.74 4.74 0 0 0 3.35-5.8 1.75 1.75 0 0 1 1.24-2.14l1.18-.32v-6.51l-14.05 3.76zm2.6-17.04l3.2 11.87V3970a8.24 8.24 0 0 1-3.2 2.96zm30.92 56.06c0-1.35-1.1-2.46-2.46-2.46h-13.46a1.76 1.76 0 0 1 0-3.51h19.45a2.46 2.46 0 0 0 0-4.92h-19.45a1.76 1.76 0 0 1 0-3.52h23.21a2.46 2.46 0 0 0 0-4.92h-23.2a1.76 1.76 0 0 1 0-3.52h17.7a2.46 2.46 0 0 0 0-4.92h-34.56c-.8 0-1.5-.55-1.7-1.32l-1.4-5.45-7.67 7.67v24.32l4.25 3.7a5.34 5.34 0 0 0 3.5 1.31h33.33c1.35 0 2.46-1.1 2.46-2.46zm15.52-80.5h-39.72v49.21h3.43v-34.99c0-.97.79-1.76 1.76-1.76 2.6 0 4.73-2.12 4.73-4.73 0-.97.79-1.76 1.76-1.76h16.36c.97 0 1.76.8 1.76 1.76a4.74 4.74 0 0 0 4.73 4.73c.97 0 1.76.8 1.76 1.76v7.04a1.76 1.76 0 0 1-3.52 0v-5.47a8.28 8.28 0 0 1-6.3-6.3h-13.22a8.28 8.28 0 0 1-6.3 6.3v33.42h9.6a8.42 8.42 0 0 1 3.3-16.14 8.42 8.42 0 0 1 3.31 16.14h2.83a5.98 5.98 0 0 1 5.44 8.44h.06c.44 0 .87.05 1.28.14v-20a1.76 1.76 0 0 1 3.52 0v22.28a5.98 5.98 0 0 1-3.22 9.32 5.98 5.98 0 0 1-5.34 8.65h-.55a5.93 5.93 0 0 1 0 4.92h12.54zM656.52 3990a4.9 4.9 0 1 0-9.8.01 4.9 4.9 0 0 0 9.8-.01z"/></defs><g><g transform="translate(-585 -3945)"><g><g><g><g><use fill="#004cff" xlink:href="#9ekoa"/></g></g></g><g><g><g><use fill="#004cff" xlink:href="#9ekob"/></g></g></g><g><g><g><use fill="#004cff" xlink:href="#9ekoc"/></g></g></g></g></g></g></svg>