<svg xmlns="http://www.w3.org/2000/svg" xmlns:xlink="http://www.w3.org/1999/xlink" width="91" height="66" viewBox="0 0 91 66"><defs><path id="e770a" d="M252.75 4013.25a9 9 0 1 1-18.02-.02 9 9 0 0 1 18.02.02zm-3 0a6 6 0 1 0-12.01.01 6 6 0 0 0 12.01-.01z"/><path id="e770b" d="M303.75 4013.25a9 9 0 0 1-18 0 9.01 9.01 0 0 1 18 0zm-3 0a6 6 0 1 0-12.01.01 6 6 0 0 0 12.01-.01z"/><path id="e770c" d="M312.51 3995.94l-13.5-21a1.5 1.5 0 0 0-1.26-.69h-16.5c-.83 0-1.5.67-1.5 1.5v37.5c0 .83.67 1.5 1.5 1.5h6v-3h-4.5v-34.5h14.18l12.82 19.94v14.56h-7.5v3h9c.83 0 1.5-.67 1.5-1.5v-16.5c0-.29-.08-.57-.24-.81z"/><path id="e770d" d="M288.75 3993.75v-10.5h12v-3h-13.5c-.83 0-1.5.67-1.5 1.5v13.5c0 .83.67 1.5 1.5 1.5h22.5v-3h-21z"/><path id="e770e" d="M281.25 3963.75h-57c-.83 0-1.5.67-1.5 1.5v48c0 .83.67 1.5 1.5 1.5h12v-3h-10.5v-45h54v45h-28.5v3h30c.83 0 1.5-.67 1.5-1.5v-48c0-.83-.67-1.5-1.5-1.5z"/><path id="e770f" d="M224.25 4005.75h9v3h-9z"/><path id="e770g" d="M254.25 4005.75h25.5v3h-25.5z"/><path id="e770h" d="M305.25 4005.75h6v3h-6z"/><path id="e770i" d="M228.75 3969.75h52.5v3h-52.5z"/><path id="e770j" d="M242.25 4011.75h3v3h-3z"/><path id="e770k" d="M293.25 4011.75h3v3h-3z"/><path id="e770l" d="M228.75 3957.75h21v3h-21z"/><path id="e770m" d="M222.75 3957.75h3v3h-3z"/></defs><g><g transform="translate(-222 -3957)"><g><g><g><g><use fill="#004cff" xlink:href="#e770a"/></g></g></g><g><g><g><use fill="#004cff" xlink:href="#e770b"/></g></g></g><g><g><g><use fill="#004cff" xlink:href="#e770c"/></g></g></g><g><g><g><use fill="#004cff" xlink:href="#e770d"/></g></g></g><g><g><g><use fill="#004cff" xlink:href="#e770e"/></g></g></g><g><g><g><use fill="#004cff" xlink:href="#e770f"/></g></g></g><g><g><g><use fill="#004cff" xlink:href="#e770g"/></g></g></g><g><g><g><use fill="#004cff" xlink:href="#e770h"/></g></g></g><g><g><g><use fill="#004cff" xlink:href="#e770i"/></g></g></g><g><g><g><use fill="#004cff" xlink:href="#e770j"/></g></g></g><g><g><g><use fill="#004cff" xlink:href="#e770k"/></g></g></g><g><g><g><use fill="#004cff" xlink:href="#e770l"/></g></g></g><g><g><g><use fill="#004cff" xlink:href="#e770m"/></g></g></g></g></g></g></svg>