<svg xmlns="http://www.w3.org/2000/svg" xmlns:xlink="http://www.w3.org/1999/xlink" width="247" height="129" viewBox="0 0 247 129"><defs><path id="hrcla" d="M1060.9 4813.41s-9.62 6.77-9.98 24.4c-.26 13.02 6.38 19.43 9.87 21.9-5.13-45.55 39.61-104.75 82.25-78.98 22.55 13.64 14.31 39.77 1.11 35.36a17.76 17.76 0 0 1-4.65-2.27l-2.37 16.28 9.65-5.96c-.9 3.99-.88 6.9.48 10.76-3.14-1.58-7.42-2.25-10.73-.74l-2.57 17.62c1.26 1.87 2.94 3.86 4.51 4.13 3.08.54 4.55-2.46 6.78-8.47 2.24-6.01 3.24-9.1 5.24-9.87 2-.77 5.09-.54 5.09-.54s-3.7 7.56-3.7 13.18c0 5.63 1.05 7.38 1.05 7.38s-6.3.63-12.46 1.1c-6.16.46-20.96 3.16-20.96 3.16l2.93-5.78c.36-.7.7-1.39 1.05-2.05l6.26-42.6a11.16 11.16 0 0 0-.45-2.5c-.67-1.6-3.25-2.33-3.25-2.33s.92-2.29.86-2.41l4-.57.01-.13 10.31-1.52-1.48 10.13c12-3.12 11.95-20.13.54-27.2-35.09-21.74-79 37.53-70.19 81.21.32 1.21.7 2.37 1.12 3.21a40.35 40.35 0 0 0 2.67 4.63c-17.45 3.95-33.36-15.19-31.66-29.76-3.6 4.87-7.9 11.62-8.7 22.07-.96 12.34 5.82 14.38 5.82 14.38l-2.71.27s-13.78.12-14.25-7.82c-4.24 7.16-16.73 7-16.73 7s9.39-3.13 10.54-19.76c1.15-16.54 2.92-32.28-10.54-43.49 0 0 8.57 1.48 15.32-2.47s6.75-4.61 10.21-5.1c3.46-.5 5.1 2.3 5.1 2.3s-7.73-1.48-8.56 15.81c-.57 11.99-.9 25.16-2.31 34.75 3.81-8.78 10.22-19.19 13.25-25.16 4.34-8.54 3.91-12.92 2.93-14.56-.98-1.64-2.84-2.3-2.51-3.17.26-.7 16.72-4.66 21.8-5.82zm-39.07 25.32l1.26-1.45-1.44-1.26-1.27 1.45zm156.71 19.55c-.86-8.5 3.32-26.25 14.06-25.43-4.4 4.74-7.74 18.76-6.8 25.67 2.48 18.35 24.67 24.4 39.69 9.4-16.25 20.73-44.7 12.52-46.95-9.64zm-7.28-27.29c2.48-4.14 6.62-5.93 12.22-3.73l-4 6.8c-4.8-3.25-7.85.64-9.37 4.85-.98 6.23-2.45 12.44 6.5 13.39.17.02.55-.14.54.05v2.43c-7.92.52-15.02 1.49-22.84 2.85 0 0 1.28-2.5 2.61-6.21a104.7 104.7 0 0 0 2.43-8.95l4.72-31.83c-.13-2.27-.36-4.91-.71-5.76-.67-1.59-3.25-2.32-3.25-2.32s.92-2.29.86-2.42l4.76-.68v-.01l7.26-1.07.05-.13 20.52-2.4c.2-.02-6.67 13.17-7.24 13.63-.57.46-2.05-.06-3.36-2.74s-.69-4.96-2-6.44c-1.3-1.48-2.62-1.6-4.05-.46-.4.33-.91 1.11-1.44 2.07zm76.26-43.7s-2.84 2.18-3.58 5.77c-.75 3.6 0 14.52 0 14.52s-4.77.47-6.56-2.97c-1.8-3.43-2.1-9.2-4.48-11.39-2.39-2.18-6.56-1.4-6.26 6.09.56 14.18 27.57 36.82 21.11 59.49-4.95 17.42-22.13 24.62-38.42 23.23 13.34-2.4 24.58-9.38 28.17-23.73 5.54-22.08-20.73-39.6-19.66-57.12.35-5.8 2.06-9.01 4.13-10.73 4.2-3.46 12.02-2.27 15.68 1.13 1.37-4.79 9.87-4.29 9.87-4.29zm-44.68 58.55c1.03 1.26 2.19 2.3 3.3 2.5 3.08.53 4.54-2.47 6.78-8.48 2.23-6.01 3.23-9.1 5.24-9.87 2-.77 5.08-.53 5.08-.53s-3.7 7.55-3.7 13.17c0 5.63 1.06 7.38 1.06 7.38s-6.3.64-12.46 1.1c-6.16.46-20.96 3.16-20.96 3.16l2.93-5.78 3.07-5.95 5.92-40.23a8.47 8.47 0 0 0-.42-1.78c-.44-1.2-1.21-1.93-1.99-3.1l-.02-1.61c.03.07 1.68-.14 3.44-.39v-.05l10.32-1.52-.01.06c2.44-.41 4.86-.83 4.88-.87l.12 1.77s-2.75 0-4.47 2.98a27.8 27.8 0 0 0-1.65 3.74zm12.46-52.79zm-129.86 17.31l4.54-.64v-.05l10.31-1.52-3.65 25.34a25.24 25.24 0 0 1 10.68 11.4l5.7-38.79 10.32-1.52-8.35 57.84-10.45 1.38 1.76-11.96a19 19 0 0 0-2.04-6.1c-1.84-3.15-4.92-5.53-8.38-6.98l-3.93 27.23-6.35.84v.04l-9.62 1.47.32-1.56s3.08-.45 4.23-3.38c.65-1.65 2.2-7.68 3.41-12.63l1.98-13.47c-5.65.73-10.24 4.42-10.08 11.82-2.94-5.59-1.86-10.88 0-13.64 2.37-3.52 6.5-5.07 11.06-4.86l1.58-10.73c-.14-2-.35-4.06-.65-4.79-.67-1.59-3.25-2.32-3.25-2.32s.92-2.29.86-2.42zm-61.09 8.74c-1.31 2.44-5.38 3.6-7.98 3.27 2.97 3.46 4.46 7.94 4.97 12.43 0 0 1.77-12.37 3.01-15.7z"/><path id="hrclb" d="M1172.12 4876.87a5.16 5.16 0 0 1-1.44 2.56 4.52 4.52 0 0 1-2.58 1.23c-.88.12-1.55-.1-2.01-.66-.49-.6-.59-1.46-.29-2.56l.24-.92c.08-.25.17-.38.3-.4l1.06-.18 1.06-.18c.12-.01.15.13.07.43l-.21.87c-.2.84-.07 1.23.41 1.16.39-.05.66-.37.83-.94l.28-1c.08-.29-.13-.7-.64-1.22a30.8 30.8 0 0 1-1.4-1.49c-.47-.63-.64-1.25-.5-1.85l.38-1.5a5.67 5.67 0 0 1 1.42-2.66 4.75 4.75 0 0 1 2.76-1.41c.9-.14 1.53.06 1.92.58.36.5.42 1.2.2 2.13l-.43 1.74c-.04.18-.13.28-.27.31-.37.09-1.05.18-2.03.28-.16.03-.22-.05-.18-.23.05-.26.18-.74.38-1.4.08-.26.09-.5.04-.72-.04-.23-.15-.33-.33-.3-.48.06-.82.48-1 1.26l-.23.91c-.1.37.11.84.6 1.42l1.4 1.6c.47.69.64 1.33.49 1.93zm-18.15 5.38c.02.19-.03.3-.17.33l-2.56.35c-.1.01-.15-.06-.16-.22-.03-.51-.07-1.73-.12-3.65 0-.18-.01-.28-.03-.29-.02 0-.05.1-.12.3-.25.85-.57 2.12-.94 3.8-.04.17-.13.27-.27.29l-1.83.25c-.16.02-.21-.08-.16-.3l3.35-13.68c.04-.16.13-.25.25-.27l2-.28c.13 0 .17.07.13.23-.58 2.13-.91 3.38-.99 3.75-.02.09-.01.12.03.12.04-.02.08-.07.13-.17.37-.76 1-2.04 1.91-3.85.1-.17.2-.27.3-.28.29-.03.7-.09 1.21-.17l.97-.13c.17-.03.24.04.2.2 0 .04-.02.08-.04.12a120.61 120.61 0 0 0-4.01 6.24c.2 1.88.51 4.32.92 7.3zm-17.52 2.7c0 .07-.07.11-.2.13l-.96.13-1.22.15c-.11.02-.16-.34-.15-1.08.02-.56.05-1.04.08-1.44.01-.08-.05-.11-.17-.1l-.72.1a.25.25 0 0 0-.2.15c-.29.73-.64 1.58-1.06 2.54-.07.12-.14.18-.2.19l-2.3.31c-.19.03-.25-.03-.18-.18l3.03-7.39c1.97-4.74 3.04-7.14 3.2-7.17.68-.13 1.35-.22 2-.28.15 0 .04 2.25-.32 6.78-.2 2.39-.41 4.78-.63 7.16zm-2.04-4.43c.14-1.3.19-1.96.14-1.95-.06 0-.2.3-.44.89l-.42 1.16c-.03.04.03.06.15.06.13 0 .25-.02.36-.04.13-.03.2-.07.21-.12zm-16.42 6.82c-.04.14-.15.24-.35.27-1.74.32-3.3.53-4.68.62-.14 0-.18-.1-.13-.31l3.37-13.75c.04-.12.12-.2.26-.22.95-.14 2.5-.35 4.62-.62.2-.03.28.03.25.17l-.23.95-.28 1.05c-.03.15-.12.23-.26.25l-2.12.3c-.18.02-.3.1-.33.23l-.32 1.25c-.17.65-.3 1.15-.36 1.47-.03.13.02.2.16.2.25 0 .82-.07 1.72-.22.15-.02.22.04.2.18-.04.21-.14.6-.3 1.18-.2.67-.3 1.07-.33 1.19-.04.16-.13.25-.27.27l-1.67.23c-.13.02-.22.12-.29.3-.18.49-.42 1.41-.72 2.77-.03.15.06.22.28.21l2.04-.28c.2-.03.28.03.24.19l-.5 2.12zm-16.27 2.11c0 .25-.1.4-.29.43-.24.06-.96.15-2.17.28-.14.02-.18-.12-.13-.44.14-.79.32-1.67.56-2.64.44-1.77.33-2.61-.33-2.52a.39.39 0 0 0-.23.03c-.1.04-.16.18-.22.4l-1.21 4.86c-.08.3-.18.48-.32.5-.69.17-1.33.27-1.93.3-.14.01-.17-.15-.1-.48l3.33-13.53c.05-.2.18-.33.41-.36l2.81-.4c.78-.11 1.4-.05 1.85.18.5.26.69.67.55 1.23l-.86 3.47a3.26 3.26 0 0 1-.9 1.55 3.2 3.2 0 0 1-.99.71c-.1.05-.17.1-.18.13 0 .02.04.04.13.07.22.03.43.15.64.33.46.4.47 1.53.02 3.38a12.6 12.6 0 0 0-.44 2.52zm-.05-10.36c.19-.78 0-1.11-.55-1l-.28.07c-.12.02-.2.13-.25.33l-.75 3.08c-.08.32-.04.48.13.47.06 0 .14 0 .23-.03.27-.04.49-.2.65-.46.24-.4.52-1.22.82-2.46zm-13.87-.95l-.46 1.8c-.03.1-.14.18-.34.23l-2.3.34a.35.35 0 0 0-.28.27l-.76 3.1c-.04.18 0 .26.12.24.27-.03.9-.12 1.89-.3.17-.02.25.04.22.2-.06.46-.25 1.23-.56 2.3-.03.12-.1.19-.23.2-.45.05-1.1.14-1.92.27a.36.36 0 0 0-.28.26c-.12.41-.33 1.23-.62 2.45l-.66 2.69c-.03.15-.14.24-.31.28-.88.2-1.67.31-2.37.34-.16.01-.22-.06-.19-.21l3.35-13.66c.05-.17.17-.27.37-.3.57-.1 1.47-.21 2.7-.37l2.4-.32c.2-.02.27.04.23.2z"/><path id="hrclc" d="M1073.5 4883.32l-1.21 2.9-69.82 8.38s70.88-11.59 71.04-11.28zm.92-4.42l-1.22 2.9-69.82 8.38s70.89-11.59 71.04-11.28zm-2.13 9.14l-1.22 2.9-69.82 8.38s70.89-11.58 71.04-11.28z"/><path id="hrcld" d="M1022.34 4785.8l-2.74 18.45c-.62 1.56-3.7 1.51-3.61-.53l2.56-17.3c-2.97.01-5.77-1.3-8-4.88l3.1-1.93c3.21 5.16 8.93 2.7 13.62-.23a92.41 92.41 0 0 0 3.6-2.38l1.08-.74a44.73 44.73 0 0 1 6.12-3.6c2.19-1.03 4.44-1.7 6.72-1.74 6.1-.12 8.9 3.85 10.18 7.02a8.76 8.76 0 0 0-3.05 2.28c-.71-2.27-2.54-5.75-7.07-5.66-1.7.03-3.47.58-5.26 1.4-1.9.89-3.77 2.07-5.6 3.31l-1.06.73a98.8 98.8 0 0 1-3.73 2.48 30.08 30.08 0 0 1-6.86 3.32zm38.44 4.88a10.33 10.33 0 0 1-2.1 5.17c-.83 1-1.8 1.57-2.68 1.45-.88-.12-1.65-.92-2.19-2.1-.65-1.46-.92-3.4-.64-5.5v-.06a10.34 10.34 0 0 1 2.1-5.18c.84-1 1.8-1.56 2.68-1.44.88.12 1.66.91 2.2 2.1.66 1.47.92 3.44.63 5.56zm-30.67-2.58l-1.62 8.38 5.68-7.71 1.75-2.22 1.3 2.52 2.97 5.79 4.21-14.23c1.2-2.57 4.07-1.06 3.5 1.03l-4.27 14.43c-.63 2.14-1.1 6.35-3.72 6.35l-4.64-9.2c-3.9 4.94-5.63 9.37-11.58 10.89l2.82-16.62c1.3-3.32 4.09-1.43 3.6.59z"/></defs><g><g transform="translate(-1002 -4771)"><g><use fill="#004cff" xlink:href="#hrcla"/></g><g><use fill="#fff" xlink:href="#hrclb"/></g><g><use fill="#fff" xlink:href="#hrclc"/></g><g><use fill="#fff" xlink:href="#hrcld"/></g></g></g></svg>