<svg xmlns="http://www.w3.org/2000/svg" xmlns:xlink="http://www.w3.org/1999/xlink" width="157" height="82" viewBox="0 0 157 82"><defs><path id="wwvga" d="M229.2 143.46s-6.11 4.3-6.34 15.52c-.17 8.29 4.06 12.37 6.28 13.94-3.26-28.99 25.2-66.66 52.34-50.26 14.35 8.68 9.1 25.3.7 22.5a11.3 11.3 0 0 1-2.95-1.44l-1.51 10.36 6.14-3.8a11.2 11.2 0 0 0 .3 6.85c-2-1-4.72-1.43-6.82-.47l-1.64 11.21c.8 1.2 1.87 2.46 2.87 2.63 1.96.35 2.9-1.57 4.32-5.39 1.42-3.82 2.06-5.79 3.33-6.28 1.28-.49 3.24-.34 3.24-.34s-2.36 4.8-2.36 8.39c0 3.57.67 4.7.67 4.7s-4 .4-7.92.69c-3.93.3-13.34 2.01-13.34 2.01l1.86-3.68.67-1.3 3.98-27.11a7.09 7.09 0 0 0-.29-1.6c-.42-1-2.06-1.47-2.06-1.47s.59-1.46.55-1.54l2.54-.36v-.08l6.57-.97-.94 6.45c7.64-1.99 7.6-12.81.34-17.31-22.33-13.84-50.27 23.88-44.67 51.68.2.77.45 1.5.72 2.04a25.5 25.5 0 0 0 1.7 2.95c-11.11 2.51-21.23-9.67-20.15-18.94-2.3 3.1-5.03 7.4-5.54 14.04-.6 7.86 3.7 9.15 3.7 9.15l-1.72.17s-8.77.08-9.07-4.97c-2.7 4.55-10.64 4.46-10.64 4.46s5.97-2 6.7-12.58c.73-10.53 1.86-20.54-6.7-27.68 0 0 5.45.95 9.74-1.57 4.3-2.51 4.3-2.93 6.5-3.25a3.3 3.3 0 0 1 3.25 1.47s-4.92-.94-5.45 10.06c-.36 7.63-.57 16.01-1.47 22.11 2.43-5.58 6.5-12.2 8.43-16 2.77-5.44 2.5-8.23 1.87-9.27-.63-1.04-1.81-1.46-1.6-2.02.17-.44 10.64-2.96 13.87-3.7zm-24.85 16.1l.8-.91-.92-.8-.8.91zm99.72 12.45c-.55-5.41 2.11-16.7 8.95-16.18-2.8 3.01-4.93 11.94-4.33 16.33 1.58 11.68 15.7 15.54 25.26 5.98-10.34 13.2-28.45 7.97-29.88-6.13zm-4.63-17.36c1.58-2.64 4.2-3.78 7.77-2.38l-2.54 4.32c-3.05-2.06-5 .41-5.96 3.1-.63 3.96-1.56 7.91 4.13 8.51.11.02.35-.08.35.04v1.54c-5.05.33-9.56.95-14.54 1.82 0 0 .82-1.6 1.66-3.96.47-1.3 1.1-3.76 1.55-5.7l3-20.24c-.08-1.45-.22-3.13-.45-3.67-.43-1.01-2.07-1.48-2.07-1.48s.6-1.45.55-1.54l3.03-.43 4.62-.69.03-.08 13.06-1.53c.12-.01-4.24 8.39-4.6 8.68-.37.29-1.31-.04-2.15-1.75-.83-1.7-.43-3.15-1.27-4.1-.83-.94-1.67-1.01-2.57-.29-.26.21-.59.7-.92 1.32zm48.53-27.81s-1.8 1.39-2.28 3.67c-.48 2.28 0 9.24 0 9.24s-3.04.3-4.18-1.9c-1.14-2.18-1.33-5.85-2.85-7.24-1.51-1.4-4.17-.9-3.98 3.87.36 9.03 17.54 23.44 13.44 37.86-3.16 11.09-14.09 15.67-24.45 14.78 8.48-1.52 15.64-5.97 17.92-15.1 3.52-14.05-13.2-25.2-12.51-36.35.22-3.7 1.3-5.73 2.63-6.82 2.67-2.2 7.65-1.45 9.97.71.88-3.04 6.29-2.72 6.29-2.72zm-28.44 37.26c.66.8 1.4 1.46 2.1 1.58 1.96.34 2.9-1.57 4.32-5.4 1.42-3.82 2.06-5.78 3.33-6.27 1.28-.49 3.24-.34 3.24-.34s-2.36 4.8-2.36 8.38c0 3.58.67 4.7.67 4.7s-4 .4-7.92.7c-3.93.3-13.34 2-13.34 2l1.86-3.67 1.96-3.79 3.76-25.6c-.05-.4-.14-.77-.27-1.13-.27-.76-.76-1.23-1.26-1.97l-.01-1.03c.02.05 1.07-.09 2.19-.24v-.04l6.56-.97v.04c1.55-.26 3.09-.52 3.1-.55l.08 1.13s-1.75 0-2.84 1.9c-.31.53-.68 1.39-1.05 2.37zm7.93-33.6zm-82.63 11.02l2.88-.41v-.03l6.57-.97-2.33 16.13c2.78 1.53 5.29 4 6.8 7.25l3.63-24.68 6.56-.97-5.3 36.8-6.66.88 1.12-7.6a12.07 12.07 0 0 0-1.3-3.89c-1.17-2-3.13-3.52-5.33-4.44l-2.5 17.33-4.04.53v.02l-6.13.94.2-1s1.97-.28 2.7-2.14c.42-1.05 1.4-4.89 2.17-8.04l1.26-8.57c-3.6.47-6.52 2.81-6.41 7.52-1.88-3.55-1.19-6.92 0-8.68 1.5-2.24 4.13-3.22 7.04-3.1l1-6.82a14.08 14.08 0 0 0-.42-3.05c-.42-1-2.06-1.47-2.06-1.47s.59-1.46.55-1.54zm-38.88 5.56c-.84 1.55-3.42 2.3-5.08 2.08 1.9 2.2 2.84 5.05 3.16 7.9 0 0 1.13-7.86 1.92-9.98z"/><path id="wwvgb" d="M299.99 183.84c-.17.66-.47 1.2-.92 1.63-.45.43-1 .7-1.64.78-.56.08-.99-.06-1.28-.42-.31-.38-.37-.92-.19-1.63l.16-.58c.04-.16.1-.25.19-.26a29.15 29.15 0 0 0 1.34-.22c.08-.01.1.08.05.27l-.13.55c-.13.54-.05.78.26.74.25-.03.42-.23.53-.6l.17-.63c.06-.19-.08-.45-.4-.78-.54-.56-.84-.88-.89-.95-.3-.4-.41-.8-.32-1.18l.24-.95a3.6 3.6 0 0 1 .9-1.7c.48-.48 1.06-.78 1.76-.9.57-.08.98.04 1.22.38.23.31.27.77.13 1.35l-.28 1.11c-.02.12-.08.18-.17.2-.23.05-.66.11-1.29.18-.1.01-.14-.04-.11-.15.03-.17.11-.47.24-.9.05-.15.06-.3.03-.45-.03-.14-.1-.2-.21-.2-.31.05-.53.32-.65.81l-.14.58c-.06.23.07.53.39.9l.89 1.03c.3.43.4.84.3 1.22zm-11.56 3.42c.02.12-.02.2-.1.21l-1.63.23c-.07 0-.1-.04-.1-.14a101.11 101.11 0 0 1-.1-2.5l-.07.19c-.16.53-.37 1.34-.6 2.4-.03.12-.09.18-.18.2l-1.16.15c-.1.02-.14-.05-.1-.19l2.13-8.7c.03-.1.08-.16.16-.17.32-.06.74-.11 1.28-.18.07 0 .1.04.08.14a77.78 77.78 0 0 0-.64 2.4c0 .04 0 .07.02.07.03-.02.05-.05.09-.11.23-.49.63-1.3 1.21-2.45.06-.11.12-.17.2-.18l.77-.1.61-.1c.11 0 .15.04.13.14l-.03.07a77.96 77.96 0 0 0-2.55 3.97c.13 1.2.33 2.75.58 4.65zm-11.14 1.72c0 .05-.05.08-.13.09l-.61.08-.78.1c-.07 0-.1-.22-.1-.7a14 14 0 0 1 .06-.91c0-.05-.03-.07-.11-.06l-.46.06c-.06.01-.1.04-.13.1-.18.46-.4 1-.67 1.61-.05.08-.09.11-.13.12l-1.46.2c-.12.02-.16-.02-.12-.11l1.93-4.7c1.25-3.03 1.93-4.55 2.04-4.57.43-.08.85-.14 1.28-.18.09 0 .02 1.44-.22 4.32-.12 1.52-.26 3.03-.4 4.55zm-1.3-2.81c.09-.84.12-1.25.09-1.25-.04 0-.13.2-.28.57l-.27.74c-.02.02.02.03.1.03a1 1 0 0 0 .23-.02c.08-.02.12-.04.13-.07zm-10.45 4.34c-.02.09-.1.14-.23.17-1.1.2-2.1.33-2.97.39-.09 0-.12-.06-.08-.2l2.14-8.74c.02-.09.08-.13.16-.15l2.95-.4c.12 0 .18.03.15.12a123.58 123.58 0 0 0-.32 1.27c-.02.1-.08.15-.16.16l-1.36.18c-.11.02-.18.07-.2.15l-.2.8c-.12.42-.2.73-.24.94-.02.08.02.12.1.13.17 0 .53-.05 1.1-.14.1-.02.14.02.13.1l-.2.76-.2.75c-.03.1-.09.17-.18.18l-1.06.14c-.08.02-.14.08-.18.2-.12.3-.27.9-.46 1.76-.02.1.03.14.17.13l1.3-.18c.13-.01.18.03.16.12-.15.6-.26 1.06-.32 1.36zm-10.36 1.34c0 .16-.06.25-.18.27-.15.04-.61.1-1.38.18-.09.01-.11-.08-.08-.28.08-.5.2-1.06.35-1.68.28-1.13.21-1.67-.2-1.6-.06-.02-.1 0-.15.01-.06.03-.1.12-.14.26l-.77 3.1c-.05.19-.12.3-.2.31-.44.1-.85.17-1.23.2-.1 0-.11-.1-.06-.31l2.1-8.61c.04-.14.13-.22.27-.24l1.79-.25c.5-.07.89-.03 1.18.12.32.16.44.42.35.78l-.55 2.2c-.1.37-.28.7-.58 1-.2.2-.4.35-.62.45-.07.03-.1.05-.12.08l.09.04c.14.02.27.1.4.21.3.26.3.97.01 2.15a8.05 8.05 0 0 0-.28 1.6zm-.03-6.6c.12-.5 0-.7-.34-.63l-.19.04c-.07.01-.12.08-.15.2l-.48 1.97c-.05.2-.02.3.08.3.04 0 .09 0 .15-.02a.57.57 0 0 0 .41-.3c.16-.25.33-.77.52-1.56zm-8.82-.6c-.13.5-.22.88-.3 1.14-.01.07-.08.12-.22.15l-1.45.22a.22.22 0 0 0-.18.17l-.49 1.97c-.02.11 0 .16.08.15.17-.01.57-.07 1.2-.18.11-.02.16.02.14.12-.04.3-.16.78-.36 1.47-.02.07-.06.11-.14.12l-1.22.17a.23.23 0 0 0-.18.17c-.08.26-.21.78-.4 1.55l-.41 1.72c-.03.1-.1.16-.2.18-.56.12-1.06.2-1.51.22-.1 0-.14-.04-.12-.14l2.13-8.69c.03-.11.1-.18.23-.2l1.72-.23 1.53-.2c.12-.02.17.02.15.12z"/><path id="wwvgc" d="M237.23 187.94l-.77 1.85-44.43 5.33s45.1-7.37 45.2-7.18zm.58-2.8l-.77 1.83-44.43 5.34s45.1-7.37 45.2-7.18zm-1.35 5.81l-.78 1.84-44.43 5.34s45.1-7.37 45.2-7.18z"/><path id="wwvgd" d="M204.67 125.89l-1.74 11.74c-.4.99-2.35.96-2.3-.34l1.63-11c-1.89 0-3.67-.83-5.1-3.12l1.98-1.22c2.04 3.28 5.68 1.71 8.67-.15.84-.52 1.6-1.05 2.28-1.51l.7-.48a28.54 28.54 0 0 1 3.89-2.29 10.7 10.7 0 0 1 4.28-1.1c3.88-.08 5.66 2.45 6.47 4.47-.7.3-1.36.8-1.94 1.45-.45-1.45-1.61-3.66-4.5-3.6-1.07.01-2.2.36-3.34.9-1.2.55-2.4 1.3-3.56 2.1l-.68.46c-.73.5-1.55 1.06-2.37 1.58a19.15 19.15 0 0 1-4.37 2.11zm24.46 3.1a6.58 6.58 0 0 1-1.33 3.3c-.53.63-1.15 1-1.7.91-.57-.07-1.06-.58-1.4-1.33a6.58 6.58 0 0 1-.41-3.5v-.04c.19-1.35.68-2.51 1.34-3.3.53-.63 1.14-.99 1.7-.91.56.07 1.06.58 1.4 1.34.42.93.59 2.18.4 3.53zM209.62 127.35l-1.04 5.33 3.62-4.9 1.12-1.42.82 1.6 1.9 3.69 2.67-9.05c.76-1.64 2.59-.68 2.23.65l-2.72 9.19c-.4 1.36-.7 4.04-2.37 4.04l-2.95-5.86c-2.49 3.15-3.58 5.96-7.37 6.93l1.8-10.57c.82-2.12 2.6-.91 2.29.37z"/></defs><g><g transform="translate(-192 -116)"><g><use fill="#004cff" xlink:href="#wwvga"/></g><g><use fill="#262626" xlink:href="#wwvgb"/></g><g><use fill="#262626" xlink:href="#wwvgc"/></g><g><use fill="#262626" xlink:href="#wwvgd"/></g></g></g></svg>